<mxfile host="app.diagrams.net" agent="Mozilla/5.0 (Windows NT 10.0; Win64; x64) AppleWebKit/537.36 (KHTML, like Gecko) Chrome/135.0.0.0 Safari/537.36 Edg/135.0.0.0" version="26.2.9">
  <diagram name="第 1 页" id="imuW87QUdR_ux1a7RQWZ">
    <mxGraphModel dx="1355" dy="1428" grid="1" gridSize="10" guides="1" tooltips="1" connect="1" arrows="1" fold="1" page="0" pageScale="1" pageWidth="827" pageHeight="1169" math="0" shadow="0">
      <root>
        <mxCell id="0" />
        <mxCell id="1" parent="0" />
        <mxCell id="uOqC4ykXFPr_6h4JmN1M-15" style="edgeStyle=none;curved=1;rounded=0;orthogonalLoop=1;jettySize=auto;html=1;entryX=0.5;entryY=0;entryDx=0;entryDy=0;fontSize=12;startSize=8;endSize=8;" edge="1" parent="1" source="uOqC4ykXFPr_6h4JmN1M-1" target="uOqC4ykXFPr_6h4JmN1M-13">
          <mxGeometry relative="1" as="geometry" />
        </mxCell>
        <mxCell id="uOqC4ykXFPr_6h4JmN1M-1" value="开始" style="rounded=1;whiteSpace=wrap;html=1;" vertex="1" parent="1">
          <mxGeometry x="90" y="-80" width="120" height="40" as="geometry" />
        </mxCell>
        <mxCell id="uOqC4ykXFPr_6h4JmN1M-19" style="edgeStyle=none;curved=1;rounded=0;orthogonalLoop=1;jettySize=auto;html=1;entryX=0.5;entryY=0;entryDx=0;entryDy=0;fontSize=12;startSize=8;endSize=8;" edge="1" parent="1" source="uOqC4ykXFPr_6h4JmN1M-2" target="uOqC4ykXFPr_6h4JmN1M-8">
          <mxGeometry relative="1" as="geometry" />
        </mxCell>
        <mxCell id="uOqC4ykXFPr_6h4JmN1M-2" value="选择监控流并预览" style="rounded=1;whiteSpace=wrap;html=1;" vertex="1" parent="1">
          <mxGeometry x="90" y="120" width="120" height="60" as="geometry" />
        </mxCell>
        <mxCell id="uOqC4ykXFPr_6h4JmN1M-5" style="edgeStyle=none;curved=1;rounded=0;orthogonalLoop=1;jettySize=auto;html=1;fontSize=12;startSize=8;endSize=8;exitX=0;exitY=0.5;exitDx=0;exitDy=0;entryX=1;entryY=0.5;entryDx=0;entryDy=0;" edge="1" parent="1" source="uOqC4ykXFPr_6h4JmN1M-4" target="uOqC4ykXFPr_6h4JmN1M-2">
          <mxGeometry relative="1" as="geometry">
            <mxPoint x="270" y="120" as="targetPoint" />
          </mxGeometry>
        </mxCell>
        <mxCell id="uOqC4ykXFPr_6h4JmN1M-6" value="读取可用监控流" style="edgeLabel;html=1;align=center;verticalAlign=middle;resizable=0;points=[];fontSize=12;" vertex="1" connectable="0" parent="uOqC4ykXFPr_6h4JmN1M-5">
          <mxGeometry x="0.0121" y="-7" relative="1" as="geometry">
            <mxPoint x="-4" y="-13" as="offset" />
          </mxGeometry>
        </mxCell>
        <mxCell id="uOqC4ykXFPr_6h4JmN1M-4" value="流媒体服务器" style="rounded=1;whiteSpace=wrap;html=1;" vertex="1" parent="1">
          <mxGeometry x="310" y="120" width="120" height="60" as="geometry" />
        </mxCell>
        <mxCell id="uOqC4ykXFPr_6h4JmN1M-8" value="监控流上渲染检测信息" style="rhombus;whiteSpace=wrap;html=1;" vertex="1" parent="1">
          <mxGeometry x="65" y="220" width="170" height="90" as="geometry" />
        </mxCell>
        <mxCell id="uOqC4ykXFPr_6h4JmN1M-26" style="edgeStyle=none;curved=1;rounded=0;orthogonalLoop=1;jettySize=auto;html=1;entryX=0.5;entryY=0;entryDx=0;entryDy=0;fontSize=12;startSize=8;endSize=8;" edge="1" parent="1" source="uOqC4ykXFPr_6h4JmN1M-9" target="uOqC4ykXFPr_6h4JmN1M-10">
          <mxGeometry relative="1" as="geometry" />
        </mxCell>
        <mxCell id="uOqC4ykXFPr_6h4JmN1M-9" value="添加监控点的位置，播放参数信息" style="rounded=1;whiteSpace=wrap;html=1;" vertex="1" parent="1">
          <mxGeometry x="30" y="470" width="250" height="30" as="geometry" />
        </mxCell>
        <mxCell id="uOqC4ykXFPr_6h4JmN1M-10" value="开始播放" style="rounded=1;whiteSpace=wrap;html=1;" vertex="1" parent="1">
          <mxGeometry x="95" y="530" width="120" height="60" as="geometry" />
        </mxCell>
        <mxCell id="uOqC4ykXFPr_6h4JmN1M-16" value="否" style="edgeStyle=none;curved=1;rounded=0;orthogonalLoop=1;jettySize=auto;html=1;entryX=0;entryY=0.5;entryDx=0;entryDy=0;fontSize=12;startSize=8;endSize=8;" edge="1" parent="1" source="uOqC4ykXFPr_6h4JmN1M-13" target="uOqC4ykXFPr_6h4JmN1M-14">
          <mxGeometry relative="1" as="geometry">
            <Array as="points" />
          </mxGeometry>
        </mxCell>
        <mxCell id="uOqC4ykXFPr_6h4JmN1M-17" style="edgeStyle=none;curved=1;rounded=0;orthogonalLoop=1;jettySize=auto;html=1;entryX=0.5;entryY=0;entryDx=0;entryDy=0;fontSize=12;startSize=8;endSize=8;" edge="1" parent="1" source="uOqC4ykXFPr_6h4JmN1M-13" target="uOqC4ykXFPr_6h4JmN1M-2">
          <mxGeometry relative="1" as="geometry" />
        </mxCell>
        <mxCell id="uOqC4ykXFPr_6h4JmN1M-13" value="验证管理员身份" style="rhombus;whiteSpace=wrap;html=1;" vertex="1" parent="1">
          <mxGeometry x="90" width="120" height="80" as="geometry" />
        </mxCell>
        <mxCell id="uOqC4ykXFPr_6h4JmN1M-14" value="拒绝管理监控流" style="rounded=1;whiteSpace=wrap;html=1;" vertex="1" parent="1">
          <mxGeometry x="310" y="10" width="120" height="60" as="geometry" />
        </mxCell>
        <mxCell id="uOqC4ykXFPr_6h4JmN1M-20" value="" style="strokeWidth=2;html=1;shape=mxgraph.flowchart.annotation_2;align=left;labelPosition=right;pointerEvents=1;rotation=90;" vertex="1" parent="1">
          <mxGeometry x="112.5" y="272.5" width="75" height="140" as="geometry" />
        </mxCell>
        <mxCell id="uOqC4ykXFPr_6h4JmN1M-22" value="原始视频流" style="rounded=1;whiteSpace=wrap;html=1;" vertex="1" parent="1">
          <mxGeometry x="30" y="380" width="100" height="40" as="geometry" />
        </mxCell>
        <mxCell id="uOqC4ykXFPr_6h4JmN1M-24" value="处理后视频流" style="rounded=1;whiteSpace=wrap;html=1;" vertex="1" parent="1">
          <mxGeometry x="170" y="380" width="100" height="40" as="geometry" />
        </mxCell>
        <mxCell id="uOqC4ykXFPr_6h4JmN1M-25" value="" style="shape=flexArrow;endArrow=classic;html=1;rounded=0;fontSize=12;startSize=8;endSize=8;curved=1;entryX=0.48;entryY=-0.002;entryDx=0;entryDy=0;entryPerimeter=0;width=28.333333333333336;" edge="1" parent="1" target="uOqC4ykXFPr_6h4JmN1M-9">
          <mxGeometry width="50" height="50" relative="1" as="geometry">
            <mxPoint x="150" y="430" as="sourcePoint" />
            <mxPoint x="200" y="450" as="targetPoint" />
          </mxGeometry>
        </mxCell>
      </root>
    </mxGraphModel>
  </diagram>
</mxfile>
